<?xml version="1.0" standalone="no"?>
<!DOCTYPE svg PUBLIC "-//W3C//DTD SVG 20010904//EN"
 "http://www.w3.org/TR/2001/REC-SVG-20010904/DTD/svg10.dtd">
<svg version="1.0" xmlns="http://www.w3.org/2000/svg"
 width="512.000000pt" height="512.000000pt" viewBox="0 0 512.000000 512.000000"
 preserveAspectRatio="xMidYMid meet">
<metadata>
Created by potrace 1.14, written by Peter Selinger 2001-2017
</metadata>
<g transform="translate(0.000000,512.000000) scale(0.100000,-0.100000)"
fill="#000000" stroke="none">
<path d="M380 2555 l0 -2185 205 0 205 0 0 670 0 670 205 0 205 0 0 -670 0
-670 1775 0 1775 0 0 2185 0 2185 -1775 0 -1775 0 0 -1120 0 -1120 -205 0
-205 0 0 1120 0 1120 -205 0 -205 0 0 -2185z m3060 195 l0 -1180 -915 0 -915
0 0 1180 0 1180 915 0 915 0 0 -1180z"/>
</g>
</svg>
